<svg width="67" height="76" viewBox="0 0 67 76" fill="none" xmlns="http://www.w3.org/2000/svg">
<path d="M30.7124 0.397278V12.3973V21.3973V24.4561C13.7294 25.0195 0.725002 30.1963 0.712402 36.3973V63.3973C0.712402 70.0249 15.4868 75.3973 33.7124 75.3973C51.938 75.3973 66.7124 70.0249 66.7124 63.3973V36.3973C66.6998 30.1963 53.6954 25.0195 36.7124 24.4561V18.7723L54.7124 10.8973L30.7124 0.397278ZM6.7124 43.2763C9.8012 44.8789 13.9208 46.1821 18.7124 47.0731V64.8739C11.4812 63.2593 6.7124 60.5167 6.7124 57.3973V43.2763ZM60.7124 43.2877V57.3973C60.7124 60.5167 55.9436 63.2593 48.7124 64.8739V47.0845C53.504 46.1941 57.6236 44.8903 60.7124 43.2877ZM24.7124 47.9287C27.6386 48.2353 30.6674 48.3925 33.7124 48.3973C36.7562 48.3967 39.785 48.2431 42.7124 47.9401V65.8465C39.8846 66.1813 36.8852 66.3973 33.7124 66.3973C30.5396 66.3973 27.5402 66.1813 24.7124 65.8465V47.9287Z" fill="#F1B539" fill-opacity="0.7"/>
</svg>
