<svg width="78" height="74" viewBox="0 0 78 74" fill="none" xmlns="http://www.w3.org/2000/svg">
<g clip-path="url(#clip0_107_950)">
<path d="M3.48214 0C1.39286 0 0 1.32143 0 3.96429V74H6.96429V63.4286H71.0357V74H78C78.1267 74 78 3.96429 78 3.96429C78 1.32143 76.6071 0 74.5179 0C72.4286 0 71.0357 1.32143 71.0357 3.96429V26.4286H6.96429V3.96429C6.96429 1.32143 5.57143 0 3.48214 0ZM19.5 5.28571C14.8845 5.28571 11.1429 8.83546 11.1429 13.2143C11.1429 17.5931 14.8845 21.1429 19.5 21.1429C24.1155 21.1429 27.8571 17.5931 27.8571 13.2143C27.8571 8.83546 24.1155 5.28571 19.5 5.28571ZM30.6429 10.5714V21.1429H66.8571C66.8571 15.8571 61.0842 10.5714 55.7143 10.5714H30.6429ZM6.96429 31.7143H71.0357V58.1429H6.96429C7.09549 58.1429 6.96429 31.7143 6.96429 31.7143ZM19.5 37C14.8845 37 11.1429 40.5497 11.1429 44.9286C11.1429 49.3074 14.8845 52.8571 19.5 52.8571C24.1155 52.8571 27.8571 49.3074 27.8571 44.9286C27.8571 40.5497 24.1155 37 19.5 37ZM30.6429 42.2857V52.8571L66.8571 52.9252C66.8571 47.5714 61.0842 42.2857 55.7143 42.2857H30.6429Z" fill="#F1B539" fill-opacity="0.7"/>
</g>
<defs>
<clipPath id="clip0_107_950">
<rect width="78" height="74" fill="white"/>
</clipPath>
</defs>
</svg>
