<svg width="119" height="64" viewBox="0 0 119 64" fill="none" xmlns="http://www.w3.org/2000/svg">
<path d="M115.776 2.61719H2.93066V60.957H115.776V2.61719Z" stroke="#F1B539" stroke-opacity="0.7" stroke-width="4.5"/>
<path d="M25.207 2.32422C25.2216 4.8973 24.6585 7.44758 23.5501 9.8285C22.4416 12.2094 20.8096 14.3741 18.7478 16.1981C16.6861 18.0221 14.2352 19.4695 11.536 20.4571C8.83686 21.4447 5.94259 21.9532 3.01953 21.9531" stroke="#F1B539" stroke-opacity="0.7" stroke-width="4.5"/>
<path d="M25.8501 60.957C25.8209 55.7849 23.474 50.832 19.3193 47.1747C15.1647 43.5174 9.5381 41.4514 3.6626 41.4258" stroke="#F1B539" stroke-opacity="0.7" stroke-width="4.5"/>
<path d="M93.855 2.32422C93.855 7.53013 96.2043 12.5228 100.386 16.204C104.568 19.8851 110.24 21.9531 116.153 21.9531" stroke="#F1B539" stroke-opacity="0.7" stroke-width="4.5"/>
<path d="M93.5 60.957C93.5292 55.7849 95.8761 50.832 100.031 47.1747C104.185 43.5174 109.812 41.4514 115.688 41.4258" stroke="#F1B539" stroke-opacity="0.7" stroke-width="4.5"/>
<path d="M50.168 13.5547H55.7814C61.3061 13.5547 67.3855 15.1367 67.3855 22.5391C67.3855 30.5664 59.6642 33.6328 51.4548 32.8125C51.3579 32.8025 51.2599 32.8195 51.1745 32.8612C51.0892 32.9028 51.0208 32.967 50.9791 33.0447C50.9375 33.1224 50.9246 33.2096 50.9422 33.2941C50.9599 33.3786 51.0073 33.4561 51.0777 33.5156L68.517 50.0781" stroke="#F1B539" stroke-opacity="0.7" stroke-width="4.5" stroke-linecap="round"/>
<path d="M74.0638 13.5547H54.561" stroke="#F1B539" stroke-opacity="0.7" stroke-width="4.5" stroke-linecap="round"/>
<path d="M50.4341 22.793H74.1969" stroke="#F1B539" stroke-opacity="0.7" stroke-width="4.5" stroke-linecap="round"/>
</svg>
