<svg width="791" height="152" viewBox="0 0 791 152" fill="none" xmlns="http://www.w3.org/2000/svg">
<path d="M16.498 70.762C16.498 78.107 10.17 85 2.825 85H30.058C22.713 85 16.498 78.107 16.498 70.762ZM52.432 48.275C51.076 48.275 49.833 47.371 49.494 46.128L47.573 40.591L35.482 5.89999H9.04C12.769 5.89999 16.159 9.62899 16.159 13.358V22.624V26.466V29.178C16.159 27.483 17.515 26.127 19.21 26.127C20.566 26.127 21.696 26.918 22.148 28.161L41.81 85L54.24 49.405L55.37 46.128C54.918 47.371 53.788 48.275 52.432 48.275ZM93.79 5.89999H87.01H80.456H68.365L62.941 21.946L61.02 27.596C61.472 26.353 62.602 25.449 63.958 25.449C65.653 25.449 67.122 26.918 67.122 28.613V32.342V77.542C67.122 81.271 64.071 85 60.229 85H67.122H70.286H78.648H87.01H93.79C90.061 85 87.01 81.271 87.01 77.542V13.358C87.01 9.62899 90.061 5.89999 93.79 5.89999ZM137.461 77.542V13.358C137.461 9.62899 140.512 5.89999 144.354 5.89999H137.461H131.02H120.85H117.573H110.793C114.522 5.89999 117.573 9.62899 117.573 13.358V77.542C117.573 81.271 114.522 85 110.793 85H117.573H120.85H129.212H137.461H144.354C140.512 85 137.461 81.271 137.461 77.542ZM205.225 77.542V72.909V6.578V5.89999H185.224V6.578V72.909V77.542C185.224 81.271 182.286 85 178.444 85H212.005C208.276 85 205.225 81.271 205.225 77.542ZM161.268 5.89999V27.257C164.206 16.183 171.325 7.02999 182.738 5.89999H161.268ZM207.824 5.89999C219.124 7.02999 226.356 16.183 229.181 27.257V5.89999H207.824ZM245.647 72.457C245.647 72.118 245.647 71.779 245.647 71.553C243.274 77.768 236.946 84.096 230.392 85H258.077C251.184 85 245.647 79.463 245.647 72.457ZM267.343 85H302.147C298.757 85 295.819 82.175 294.802 79.124L285.536 52.682C284.519 49.744 282.937 44.885 281.92 41.947L269.377 5.89999L255.817 43.416C256.269 42.286 257.286 41.495 258.529 41.495C259.885 41.495 260.902 42.286 261.354 43.416L269.377 66.581L269.603 67.259L272.88 76.751C273.106 77.316 273.106 77.994 273.106 78.559C273.106 81.836 270.507 85 267.343 85ZM351.253 5.89999H346.846C359.728 5.89999 371.254 15.392 374.305 27.257V5.89999H351.253ZM345.716 45.45V6.578V5.89999H319.048C322.777 5.89999 325.828 9.62899 325.828 13.358V77.542C325.828 81.271 322.777 85 319.048 85H324.246H345.716H347.298H352.609C348.767 85 345.716 81.271 345.716 77.542V73.587V45.45C353.965 45.45 361.536 51.439 363.57 59.01V31.89C361.536 39.461 353.965 45.45 345.716 45.45ZM417.931 6.578V5.89999H391.263C394.992 5.89999 398.043 9.62899 398.043 13.358V77.542C398.043 81.271 394.992 85 391.263 85H417.931V84.322V6.578ZM419.061 5.89999C431.943 5.89999 443.469 15.392 446.519 27.257V5.89999H423.468H419.061ZM419.061 85H446.519V63.756C443.469 75.621 431.943 85 419.061 85ZM417.931 45.45C426.18 45.45 433.751 51.439 435.785 59.01V31.89C433.751 39.461 426.18 45.45 417.931 45.45ZM522.35 63.191C520.429 42.06 482.235 33.811 483.478 16.183C483.93 9.968 488.676 6.352 493.874 5.89999C493.309 5.89999 492.744 5.89999 492.179 5.89999C479.975 5.89999 463.477 10.759 463.477 24.319C463.477 45.563 504.27 56.524 504.27 73.587C504.27 79.35 499.298 84.435 493.874 85C509.694 84.661 523.367 75.169 522.35 63.191ZM517.265 27.257V5.89999C515.796 7.143 512.971 7.48199 510.485 7.48199C505.626 7.48199 501.671 6.578 496.812 6.126C507.547 7.369 515.57 18.33 517.265 27.257ZM480.992 79.576C480.653 77.542 481.783 76.525 484.156 74.039C486.19 71.892 487.659 68.728 487.659 65.451C487.659 58.784 482.235 53.36 475.568 53.36C468.901 53.36 463.477 58.784 463.477 65.451C463.477 76.186 476.02 84.435 491.275 85C484.947 84.661 481.444 82.062 480.992 79.576ZM581.193 77.542V72.909V6.578V5.89999H561.192V6.578V72.909V77.542C561.192 81.271 558.254 85 554.412 85H587.973C584.244 85 581.193 81.271 581.193 77.542ZM537.236 5.89999V27.257C540.174 16.183 547.293 7.02999 558.706 5.89999H537.236ZM583.792 5.89999C595.092 7.02999 602.324 16.183 605.149 27.257V5.89999H583.792ZM633.666 1.493L622.592 0.249993L622.14 0.701994L640.559 21.381L641.35 21.494L633.666 1.493ZM670.36 35.732C677.027 35.732 682.451 30.308 682.451 23.641C682.451 18.782 679.513 14.601 675.445 12.68C672.507 11.211 672.846 8.04699 674.541 7.256C666.857 9.742 658.269 14.94 658.269 23.641C658.269 30.308 663.693 35.732 670.36 35.732ZM691.491 24.432C691.039 42.625 673.185 51.439 664.258 63.982C675.671 50.648 711.266 49.97 711.266 27.822C711.266 15.731 699.062 5.89999 683.92 5.89999C683.129 5.89999 682.225 5.89999 681.434 6.01299C687.197 7.59499 691.491 15.618 691.491 24.432ZM707.763 59.801C707.763 61.383 705.729 65.112 700.644 65.112C693.638 65.112 685.728 59.575 676.688 59.801C663.919 59.801 659.851 70.423 659.851 76.977C659.851 80.141 660.416 82.966 661.32 85C661.32 83.757 663.919 78.785 672.394 79.576C680.191 80.254 683.92 84.322 691.378 84.661C702 85.113 707.763 76.073 707.763 72.344V85H708.441V56.298H707.763V59.801ZM730.565 31.099C730.565 29.517 732.712 25.788 737.684 25.788C744.69 25.788 752.826 31.325 761.753 31.099C763.222 31.099 764.578 30.986 765.934 30.647C766.838 30.421 767.516 31.212 767.516 32.003C767.516 32.455 767.29 32.907 766.951 33.133C773.618 29.065 778.59 23.302 778.59 14.036C778.59 10.759 777.912 7.934 777.008 5.89999C777.008 7.143 774.522 12.115 766.047 11.324C758.137 10.646 754.408 6.578 747.063 6.239C736.328 5.787 730.565 14.94 730.565 18.669V5.89999H729.887V34.602H730.565V31.099ZM752.713 41.043C752.148 41.043 751.583 40.591 751.583 39.913C751.583 39.461 751.922 39.009 752.374 38.896C751.583 39.122 750.792 39.461 750.001 39.687C744.012 41.834 738.475 43.755 734.633 46.58C737.232 44.772 740.622 43.981 743.899 43.981C752.826 43.981 760.171 52.908 760.171 63.982C760.171 73.474 754.634 82.062 747.402 84.096C746.385 84.322 745.707 84.322 745.142 84.096C747.628 84.661 750.114 85 752.713 85C767.855 85 780.059 75.169 780.059 63.078C780.059 50.874 767.855 41.043 752.713 41.043ZM734.633 46.58C734.633 46.58 734.746 46.58 734.859 46.467C734.746 46.467 734.746 46.58 734.633 46.58ZM744.238 78.333C748.306 76.412 751.244 72.118 751.244 67.259C751.244 60.592 745.82 55.168 739.153 55.168C732.486 55.168 727.062 60.592 727.062 67.259C727.062 70.084 727.966 72.683 729.661 74.717C732.825 78.785 737.684 81.949 743.334 83.644C741.526 82.966 741.187 79.689 744.238 78.333Z" fill="white"/>
<path d="M518.136 144L521.955 120.727H524.227L520.409 144H518.136ZM507.545 137.545L507.909 135.273H525.273L524.909 137.545H507.545ZM509.955 144L513.773 120.727H516.045L512.227 144H509.955ZM508.909 129.455L509.273 127.182H526.636L526.273 129.455H508.909ZM533.206 144V120.727H541.069C542.888 120.727 544.38 121.038 545.547 121.659C546.713 122.273 547.577 123.117 548.138 124.193C548.698 125.269 548.978 126.492 548.978 127.864C548.978 129.235 548.698 130.451 548.138 131.511C547.577 132.572 546.717 133.405 545.558 134.011C544.399 134.61 542.918 134.909 541.115 134.909H534.751V132.364H541.024C542.266 132.364 543.266 132.182 544.024 131.818C544.789 131.455 545.342 130.939 545.683 130.273C546.031 129.598 546.206 128.795 546.206 127.864C546.206 126.932 546.031 126.117 545.683 125.42C545.334 124.723 544.778 124.186 544.013 123.807C543.247 123.42 542.236 123.227 540.978 123.227H536.024V144H533.206ZM544.16 133.545L549.888 144H546.615L540.978 133.545H544.16ZM563.641 144.364C561.96 144.364 560.509 143.992 559.289 143.25C558.077 142.5 557.141 141.455 556.482 140.114C555.831 138.765 555.505 137.197 555.505 135.409C555.505 133.621 555.831 132.045 556.482 130.682C557.141 129.311 558.058 128.242 559.232 127.477C560.414 126.705 561.793 126.318 563.369 126.318C564.278 126.318 565.176 126.47 566.062 126.773C566.948 127.076 567.755 127.568 568.482 128.25C569.21 128.924 569.789 129.818 570.221 130.932C570.653 132.045 570.869 133.417 570.869 135.045V136.182H557.414V133.864H568.141C568.141 132.879 567.945 132 567.551 131.227C567.164 130.455 566.611 129.845 565.891 129.398C565.179 128.951 564.338 128.727 563.369 128.727C562.301 128.727 561.376 128.992 560.596 129.523C559.823 130.045 559.229 130.727 558.812 131.568C558.395 132.409 558.187 133.311 558.187 134.273V135.818C558.187 137.136 558.414 138.254 558.869 139.17C559.331 140.08 559.971 140.773 560.789 141.25C561.607 141.72 562.558 141.955 563.641 141.955C564.346 141.955 564.982 141.856 565.551 141.659C566.126 141.455 566.623 141.152 567.039 140.75C567.456 140.341 567.778 139.833 568.005 139.227L570.596 139.955C570.323 140.833 569.865 141.606 569.221 142.273C568.577 142.932 567.782 143.447 566.835 143.818C565.888 144.182 564.823 144.364 563.641 144.364ZM582.103 144L576.785 126.545H579.603L583.376 139.909H583.557L587.285 126.545H590.148L593.83 139.864H594.012L597.785 126.545H600.603L595.285 144H592.648L588.83 130.591H588.557L584.739 144H582.103ZM607.348 144V126.545H610.03V144H607.348ZM608.712 123.636C608.189 123.636 607.738 123.458 607.36 123.102C606.988 122.746 606.803 122.318 606.803 121.818C606.803 121.318 606.988 120.89 607.36 120.534C607.738 120.178 608.189 120 608.712 120C609.235 120 609.682 120.178 610.053 120.534C610.432 120.89 610.621 121.318 610.621 121.818C610.621 122.318 610.432 122.746 610.053 123.102C609.682 123.458 609.235 123.636 608.712 123.636ZM620.824 133.5V144H618.142V126.545H620.733V129.273H620.96C621.369 128.386 621.991 127.674 622.824 127.136C623.657 126.591 624.733 126.318 626.051 126.318C627.233 126.318 628.267 126.561 629.153 127.045C630.04 127.523 630.729 128.25 631.222 129.227C631.714 130.197 631.96 131.424 631.96 132.909V144H629.278V133.091C629.278 131.72 628.922 130.652 628.21 129.886C627.498 129.114 626.521 128.727 625.278 128.727C624.422 128.727 623.657 128.913 622.983 129.284C622.316 129.655 621.79 130.197 621.403 130.909C621.017 131.621 620.824 132.485 620.824 133.5ZM646.652 144.364C645.197 144.364 643.913 143.996 642.799 143.261C641.686 142.519 640.815 141.473 640.186 140.125C639.557 138.769 639.243 137.167 639.243 135.318C639.243 133.485 639.557 131.894 640.186 130.545C640.815 129.197 641.69 128.155 642.811 127.42C643.932 126.686 645.227 126.318 646.697 126.318C647.834 126.318 648.731 126.508 649.39 126.886C650.057 127.258 650.565 127.682 650.913 128.159C651.269 128.629 651.546 129.015 651.743 129.318H651.97V120.727H654.652V144H652.061V141.318H651.743C651.546 141.636 651.265 142.038 650.902 142.523C650.538 143 650.019 143.428 649.345 143.807C648.671 144.178 647.773 144.364 646.652 144.364ZM647.015 141.955C648.091 141.955 649 141.674 649.743 141.114C650.485 140.545 651.049 139.761 651.436 138.761C651.822 137.754 652.015 136.591 652.015 135.273C652.015 133.97 651.826 132.83 651.447 131.852C651.068 130.867 650.508 130.102 649.765 129.557C649.023 129.004 648.106 128.727 647.015 128.727C645.879 128.727 644.932 129.019 644.174 129.602C643.424 130.178 642.86 130.962 642.481 131.955C642.11 132.939 641.924 134.045 641.924 135.273C641.924 136.515 642.114 137.644 642.493 138.659C642.879 139.667 643.447 140.47 644.197 141.068C644.955 141.659 645.894 141.955 647.015 141.955ZM667.136 140.818L666.954 142.045C666.825 142.909 666.628 143.833 666.363 144.818C666.105 145.803 665.837 146.731 665.556 147.602C665.276 148.473 665.045 149.167 664.863 149.682H662.818C662.916 149.197 663.045 148.557 663.204 147.761C663.363 146.966 663.522 146.076 663.681 145.091C663.848 144.114 663.984 143.114 664.09 142.091L664.227 140.818H667.136ZM687.868 144V120.727H695.732C697.55 120.727 699.042 121.038 700.209 121.659C701.376 122.273 702.239 123.117 702.8 124.193C703.361 125.269 703.641 126.492 703.641 127.864C703.641 129.235 703.361 130.451 702.8 131.511C702.239 132.572 701.38 133.405 700.22 134.011C699.061 134.61 697.58 134.909 695.777 134.909H689.414V132.364H695.686C696.929 132.364 697.929 132.182 698.686 131.818C699.452 131.455 700.005 130.939 700.345 130.273C700.694 129.598 700.868 128.795 700.868 127.864C700.868 126.932 700.694 126.117 700.345 125.42C699.997 124.723 699.44 124.186 698.675 123.807C697.91 123.42 696.898 123.227 695.641 123.227H690.686V144H687.868ZM698.823 133.545L704.55 144H701.277L695.641 133.545H698.823ZM718.304 144.364C716.622 144.364 715.171 143.992 713.952 143.25C712.74 142.5 711.804 141.455 711.145 140.114C710.493 138.765 710.168 137.197 710.168 135.409C710.168 133.621 710.493 132.045 711.145 130.682C711.804 129.311 712.721 128.242 713.895 127.477C715.077 126.705 716.455 126.318 718.031 126.318C718.94 126.318 719.838 126.47 720.724 126.773C721.611 127.076 722.418 127.568 723.145 128.25C723.872 128.924 724.452 129.818 724.884 130.932C725.315 132.045 725.531 133.417 725.531 135.045V136.182H712.077V133.864H722.804C722.804 132.879 722.607 132 722.213 131.227C721.827 130.455 721.274 129.845 720.554 129.398C719.842 128.951 719.001 128.727 718.031 128.727C716.963 128.727 716.039 128.992 715.259 129.523C714.486 130.045 713.891 130.727 713.474 131.568C713.058 132.409 712.849 133.311 712.849 134.273V135.818C712.849 137.136 713.077 138.254 713.531 139.17C713.993 140.08 714.634 140.773 715.452 141.25C716.27 141.72 717.221 141.955 718.304 141.955C719.009 141.955 719.645 141.856 720.213 141.659C720.789 141.455 721.285 141.152 721.702 140.75C722.118 140.341 722.44 139.833 722.668 139.227L725.259 139.955C724.986 140.833 724.527 141.606 723.884 142.273C723.24 142.932 722.444 143.447 721.497 143.818C720.55 144.182 719.486 144.364 718.304 144.364ZM735.493 120.727V144H732.811V120.727H735.493ZM743.605 144V126.545H746.286V144H743.605ZM744.968 123.636C744.445 123.636 743.995 123.458 743.616 123.102C743.245 122.746 743.059 122.318 743.059 121.818C743.059 121.318 743.245 120.89 743.616 120.534C743.995 120.178 744.445 120 744.968 120C745.491 120 745.938 120.178 746.309 120.534C746.688 120.89 746.877 121.318 746.877 121.818C746.877 122.318 746.688 122.746 746.309 123.102C745.938 123.458 745.491 123.636 744.968 123.636ZM768.671 126.545L762.216 144H759.489L753.035 126.545H755.944L760.762 140.455H760.944L765.762 126.545H768.671ZM782.104 144.364C780.422 144.364 778.971 143.992 777.752 143.25C776.54 142.5 775.604 141.455 774.945 140.114C774.293 138.765 773.968 137.197 773.968 135.409C773.968 133.621 774.293 132.045 774.945 130.682C775.604 129.311 776.521 128.242 777.695 127.477C778.877 126.705 780.255 126.318 781.831 126.318C782.74 126.318 783.638 126.47 784.524 126.773C785.411 127.076 786.218 127.568 786.945 128.25C787.672 128.924 788.252 129.818 788.684 130.932C789.115 132.045 789.331 133.417 789.331 135.045V136.182H775.877V133.864H786.604C786.604 132.879 786.407 132 786.013 131.227C785.627 130.455 785.074 129.845 784.354 129.398C783.642 128.951 782.801 128.727 781.831 128.727C780.763 128.727 779.839 128.992 779.059 129.523C778.286 130.045 777.691 130.727 777.274 131.568C776.858 132.409 776.649 133.311 776.649 134.273V135.818C776.649 137.136 776.877 138.254 777.331 139.17C777.793 140.08 778.434 140.773 779.252 141.25C780.07 141.72 781.021 141.955 782.104 141.955C782.809 141.955 783.445 141.856 784.013 141.659C784.589 141.455 785.085 141.152 785.502 140.75C785.918 140.341 786.24 139.833 786.468 139.227L789.059 139.955C788.786 140.833 788.327 141.606 787.684 142.273C787.04 142.932 786.244 143.447 785.297 143.818C784.35 144.182 783.286 144.364 782.104 144.364Z" fill="white"/>
</svg>
