<svg width="68" height="104" viewBox="0 0 68 104" fill="none" xmlns="http://www.w3.org/2000/svg">
<path d="M33.3059 39.9555C32.9076 39.9555 32.5223 39.8819 32.1499 39.7346C31.7755 39.5874 31.4639 39.3911 31.2149 39.1457L17.4743 25.5993C16.9266 25.0594 16.6528 24.3723 16.6528 23.5379C16.6528 22.7035 16.9266 22.0164 17.4743 21.4765C18.0219 20.9366 18.7189 20.6666 19.5653 20.6666C20.4116 20.6666 21.1086 20.9366 21.6562 21.4765L33.3059 32.9615L44.9556 21.4765C45.5032 20.9366 46.2002 20.6666 47.0465 20.6666C47.8929 20.6666 48.5899 20.9366 49.1375 21.4765C49.6851 22.0164 49.959 22.7035 49.959 23.5379C49.959 24.3723 49.6851 25.0594 49.1375 25.5993L35.3969 39.1457C35.0981 39.4402 34.7745 39.6483 34.4261 39.77C34.0776 39.8937 33.7042 39.9555 33.3059 39.9555Z" fill="#E5451F"/>
<path d="M33.3059 39.9555C32.9076 39.9555 32.5223 39.8819 32.1499 39.7346C31.7755 39.5874 31.4639 39.3911 31.2149 39.1457L17.4743 25.5993C16.9266 25.0594 16.6528 24.3723 16.6528 23.5379C16.6528 22.7035 16.9266 22.0164 17.4743 21.4765C18.0219 20.9366 18.7189 20.6666 19.5653 20.6666C20.4116 20.6666 21.1086 20.9366 21.6562 21.4765L33.3059 32.9615L44.9556 21.4765C45.5032 20.9366 46.2002 20.6666 47.0465 20.6666C47.8929 20.6666 48.5899 20.9366 49.1375 21.4765C49.6851 22.0164 49.959 22.7035 49.959 23.5379C49.959 24.3723 49.6851 25.0594 49.1375 25.5993L35.3969 39.1457C35.0981 39.4402 34.7745 39.6483 34.4261 39.77C34.0776 39.8937 33.7042 39.9555 33.3059 39.9555Z" fill="#E5451F"/>
<path d="M33.3059 60.9555C32.9076 60.9555 32.5223 60.8819 32.1499 60.7346C31.7755 60.5874 31.4639 60.3911 31.2149 60.1457L17.4743 46.5993C16.9266 46.0594 16.6528 45.3723 16.6528 44.5379C16.6528 43.7035 16.9266 43.0164 17.4743 42.4765C18.0219 41.9366 18.7189 41.6666 19.5653 41.6666C20.4116 41.6666 21.1086 41.9366 21.6562 42.4765L33.3059 53.9615L44.9556 42.4765C45.5032 41.9366 46.2002 41.6666 47.0465 41.6666C47.8929 41.6666 48.5899 41.9366 49.1375 42.4765C49.6851 43.0164 49.959 43.7035 49.959 44.5379C49.959 45.3723 49.6851 46.0594 49.1375 46.5993L35.3969 60.1457C35.0981 60.4402 34.7745 60.6483 34.4261 60.77C34.0776 60.8937 33.7042 60.9555 33.3059 60.9555Z" fill="#E5451F" fill-opacity="0.39"/>
<path d="M33.3059 60.9555C32.9076 60.9555 32.5223 60.8819 32.1499 60.7346C31.7755 60.5874 31.4639 60.3911 31.2149 60.1457L17.4743 46.5993C16.9266 46.0594 16.6528 45.3723 16.6528 44.5379C16.6528 43.7035 16.9266 43.0164 17.4743 42.4765C18.0219 41.9366 18.7189 41.6666 19.5653 41.6666C20.4116 41.6666 21.1086 41.9366 21.6562 42.4765L33.3059 53.9615L44.9556 42.4765C45.5032 41.9366 46.2002 41.6666 47.0465 41.6666C47.8929 41.6666 48.5899 41.9366 49.1375 42.4765C49.6851 43.0164 49.959 43.7035 49.959 44.5379C49.959 45.3723 49.6851 46.0594 49.1375 46.5993L35.3969 60.1457C35.0981 60.4402 34.7745 60.6483 34.4261 60.77C34.0776 60.8937 33.7042 60.9555 33.3059 60.9555Z" fill="#E5451F" fill-opacity="0.39"/>
<path d="M33.3059 81.9555C32.9076 81.9555 32.5223 81.8819 32.1499 81.7346C31.7755 81.5874 31.4639 81.3911 31.2149 81.1457L17.4743 67.5993C16.9266 67.0594 16.6528 66.3723 16.6528 65.5379C16.6528 64.7035 16.9266 64.0164 17.4743 63.4765C18.0219 62.9366 18.7189 62.6666 19.5653 62.6666C20.4116 62.6666 21.1086 62.9366 21.6562 63.4765L33.3059 74.9615L44.9556 63.4765C45.5032 62.9366 46.2002 62.6666 47.0465 62.6666C47.8929 62.6666 48.5899 62.9366 49.1375 63.4765C49.6851 64.0164 49.959 64.7035 49.959 65.5379C49.959 66.3723 49.6851 67.0594 49.1375 67.5993L35.3969 81.1457C35.0981 81.4402 34.7745 81.6483 34.4261 81.77C34.0776 81.8937 33.7042 81.9555 33.3059 81.9555Z" fill="#E5451F" fill-opacity="0.16"/>
<path d="M33.3059 81.9555C32.9076 81.9555 32.5223 81.8819 32.1499 81.7346C31.7755 81.5874 31.4639 81.3911 31.2149 81.1457L17.4743 67.5993C16.9266 67.0594 16.6528 66.3723 16.6528 65.5379C16.6528 64.7035 16.9266 64.0164 17.4743 63.4765C18.0219 62.9366 18.7189 62.6666 19.5653 62.6666C20.4116 62.6666 21.1086 62.9366 21.6562 63.4765L33.3059 74.9615L44.9556 63.4765C45.5032 62.9366 46.2002 62.6666 47.0465 62.6666C47.8929 62.6666 48.5899 62.9366 49.1375 63.4765C49.6851 64.0164 49.959 64.7035 49.959 65.5379C49.959 66.3723 49.6851 67.0594 49.1375 67.5993L35.3969 81.1457C35.0981 81.4402 34.7745 81.6483 34.4261 81.77C34.0776 81.8937 33.7042 81.9555 33.3059 81.9555Z" fill="#E5451F" fill-opacity="0.16"/>
</svg>
