<svg width="79" height="73" viewBox="0 0 79 73" fill="none" xmlns="http://www.w3.org/2000/svg">
<path d="M52.257 36.6034L52.257 36.6034L52.2547 36.6039C52.1315 36.6285 52.0663 36.6398 52.01 36.6398C51.4436 36.6398 50.9392 36.2533 50.8072 35.6609C50.6614 34.9949 51.0825 34.354 51.7402 34.2257L51.7402 34.2258L51.7474 34.2242C52.6252 34.0394 53.478 33.832 54.3022 33.6259L54.3022 33.626L54.3135 33.6229C54.9543 33.4467 55.6211 33.8296 55.8012 34.4845C55.977 35.1241 55.5959 35.7895 54.9434 35.9711C54.0518 36.1998 53.1758 36.4241 52.257 36.6034Z" fill="white" stroke="white"/>
<path d="M21.2763 32.8839L21.2763 32.884L21.2845 32.8866C22.089 33.1394 22.9407 33.3927 23.7937 33.6232C24.4433 33.8025 24.8331 34.4667 24.6535 35.1365L24.6515 35.144L24.6497 35.1515C24.5242 35.6849 24.0319 36.0457 23.4911 36.0457C23.402 36.0457 23.296 36.0298 23.215 36.0028L23.2009 35.9981L23.1865 35.9942C22.2523 35.7436 21.3742 35.4957 20.5223 35.2043L20.5223 35.2042L20.515 35.2018C19.8683 34.9917 19.5275 34.2958 19.7379 33.6646L19.739 33.661C19.9492 33.0143 20.6451 32.6735 21.2763 32.8839Z" fill="white" stroke="white"/>
<path d="M40.2668 36.7056C40.2668 37.3664 39.7137 37.9195 39.053 37.9195C38.1482 37.9195 37.2196 37.897 36.3068 37.8741C35.6369 37.8385 35.1104 37.2638 35.142 36.6158C35.1743 35.9546 35.7424 35.4298 36.4124 35.4459C37.2798 35.4687 38.1772 35.4918 39.053 35.4918C39.7137 35.4918 40.2668 36.0449 40.2668 36.7056Z" fill="white" stroke="white"/>
<path d="M47.0593 37.4433L47.0578 37.4435C46.1589 37.5559 45.2367 37.6461 44.336 37.7139H44.3358H44.3355H44.3352H44.335H44.3347H44.3344H44.3342H44.3339H44.3336H44.3334H44.3331H44.3328H44.3326H44.3323H44.332H44.3317H44.3315H44.3312H44.3309H44.3307H44.3304H44.3301H44.3299H44.3296H44.3293H44.3291H44.3288H44.3285H44.3283H44.328H44.3277H44.3275H44.3272H44.3269H44.3267H44.3264H44.3261H44.3259H44.3256H44.3253H44.3251H44.3248H44.3245H44.3243H44.324H44.3237H44.3234H44.3232H44.3229H44.3226H44.3224H44.3221H44.3218H44.3216H44.3213H44.321H44.3208H44.3205H44.3202H44.32H44.3197H44.3194H44.3192H44.3189H44.3186H44.3184H44.3181H44.3178H44.3176H44.3173H44.317H44.3168H44.3165H44.3162H44.3159H44.3157H44.3154H44.3151H44.3149H44.3146H44.3143H44.3141H44.3138H44.3135H44.3133H44.313H44.3127H44.3125H44.3122H44.3119H44.3117H44.3114H44.3111H44.3109H44.3106H44.3103H44.3101H44.3098H44.3095H44.3093H44.309H44.3087H44.3085H44.3082H44.3079H44.3076H44.3074H44.3071H44.3068H44.3066H44.3063H44.306H44.3058H44.3055H44.3052H44.305H44.3047H44.3044H44.3042H44.3039H44.3036H44.3034H44.3031H44.3028H44.3026H44.3023H44.302H44.3018H44.3015H44.3012H44.301H44.3007H44.3004H44.3001H44.2999H44.2996H44.2993H44.2991H44.2988H44.2985H44.2983H44.298H44.2977H44.2975H44.2972H44.2969H44.2967H44.2964H44.2961H44.2959H44.2956H44.2953H44.2951H44.2948H44.2945H44.2943H44.294H44.2937H44.2935H44.2932H44.2929H44.2927H44.2924H44.2921H44.2918H44.2916H44.2913H44.291H44.2908H44.2905H44.2902H44.29H44.2897H44.2894H44.2892H44.2889H44.2886H44.2884H44.2881H44.2878H44.2876H44.2873H44.287H44.2868H44.2865H44.2862H44.286H44.2857H44.2854H44.2852H44.2849H44.2846H44.2843H44.2841H44.2838H44.2835H44.2833H44.283H44.2827H44.2825H44.2822H44.2819H44.2817H44.2814H44.2811H44.2809H44.2806H44.2803H44.2801H44.2798H44.2795H44.2793H44.279H44.2787H44.2785H44.2782H44.2779H44.2777H44.2774H44.2771H44.2769H44.2766H44.2763H44.276H44.2758H44.2755H44.2752H44.275H44.2747H44.2744H44.2742H44.2739H44.2736H44.2734H44.2731H44.2728H44.2726H44.2723H44.272H44.2718H44.2715H44.2712H44.271H44.2707H44.2704H44.2702H44.2699H44.2696H44.2694H44.2691H44.2688H44.2685H44.2683H44.268H44.2677H44.2675H44.2672H44.2669H44.2667H44.2664H44.2661H44.2659H44.2656H44.2653H44.2651H44.2648H44.2645H44.2643H44.264H44.2637H44.2635H44.2632H44.2629H44.2627H44.2624H44.2621H44.2619H44.2616H44.2613H44.2611H44.2608H44.2605H44.2602H44.26H44.2597H44.2594H44.2592H44.2589H44.2586H44.2584H44.2581H44.2578H44.2576H44.2573H44.257H44.2568H44.2565H44.2562H44.256H44.2557H44.2554H44.2552H44.2549H44.2546H44.2544H44.2541H44.2538H44.2536H44.2533H44.253H44.2527H44.2525H44.2522H44.2519H44.2517H44.2514H44.2511H44.2509H44.2506H44.2503H44.2501H44.2498H44.2495H44.2493H44.249H44.2487H44.2485H44.2482H44.2479H44.2477H44.2474H44.2471H44.2469H44.2466H44.2463H44.2461H44.2458H44.2455H44.2453H44.245H44.2447H44.2444H44.2442H44.2439H44.2436H44.2434H44.2431H44.2428H44.2426H44.2423H44.242H44.2418H44.2415H44.2412H44.241H44.2407H44.2404H44.2402H44.2399H44.2396H44.2394H44.2391H44.2388H44.2386H44.2383H44.238H44.2378H44.2375H44.2372H44.2369H44.2367H44.2364H44.2361H44.2359H44.2356H44.2353H44.2351H44.2348H44.2345H44.2343H44.234H44.2337H44.2335H44.2332H44.2329H44.2327H44.2324H44.2321H44.2319H44.2316H44.2313H44.2311H44.2308H44.2305H44.2303H44.23H44.2297H44.2295H44.2292H44.2289H44.2286H44.2284H44.2281H44.2278H44.2276H44.2273H44.227H44.2268H44.2265H44.2262H44.226H44.2257H44.2254H44.2252H44.2249H44.2246H44.2244H44.2241H44.2238H44.2236H44.2233H44.223H44.2228H44.2225H44.2222H44.222H44.2217H44.2214H44.2211H44.2209H44.2206H44.2203H44.2201H44.2198H44.2195H44.2193H44.219H44.2187H44.2185H44.2182H44.2179H44.2177C43.6119 37.7139 43.0811 37.2335 43.0489 36.5893L43.049 36.5893L43.0482 36.5778C42.9997 35.9154 43.5021 35.3332 44.1628 35.2848L44.1628 35.2848L44.1656 35.2846C45.0404 35.2155 45.9141 35.1236 46.7803 35.0324L46.7837 35.032L46.7837 35.0321L46.7919 35.0311C47.4447 34.9515 48.0496 35.4307 48.1317 36.1035C48.2113 36.7564 47.7322 37.3613 47.0593 37.4433Z" fill="white" stroke="white"/>
<path d="M31.3687 35.0549L31.3687 35.0549L31.3725 35.0553C32.0106 35.1175 32.4934 35.7165 32.4099 36.4181L32.4098 36.418L32.4091 36.4248C32.3455 37.0293 31.8392 37.4812 31.2238 37.4853C31.2199 37.4848 31.2111 37.4835 31.1947 37.4807C31.193 37.4804 31.191 37.4801 31.1888 37.4797C31.1632 37.4754 31.11 37.4664 31.0485 37.4635C30.1499 37.3508 29.2281 37.2159 28.3479 37.0805C27.6745 36.9636 27.2321 36.3458 27.3436 35.693C27.4589 35.0175 28.0777 34.5732 28.7318 34.6849L28.7359 34.6856C29.5828 34.8229 30.4856 34.9619 31.3687 35.0549Z" fill="white" stroke="white"/>
<path d="M66.2565 44.3572L66.0444 44.4741L66.0046 44.713C65.509 47.6867 64.6087 50.7462 63.1024 53.7814C63.0623 53.8614 63.0069 53.9341 62.9157 54.0481C62.3982 54.6318 61.5301 55.1856 60.3404 55.6903C59.1529 56.194 57.6848 56.6324 56.0146 57.004C52.6748 57.7471 48.5745 58.2132 44.3987 58.418L42.6398 58.5043L44.1816 59.3552L63.5585 70.049C63.5589 70.0492 63.5592 70.0495 63.5596 70.0497C64.1382 70.3719 64.3502 71.1168 64.0275 71.699C63.7987 72.1071 63.3746 72.334 62.9558 72.334C62.7589 72.334 62.5455 72.2836 62.3734 72.1899C62.3731 72.1897 62.3728 72.1896 62.3726 72.1894L39.3403 59.4851L39.0983 59.3516L38.8566 59.4855L15.8707 72.2123C15.8702 72.2125 15.8698 72.2128 15.8693 72.213C15.6973 72.3065 15.4841 72.3569 15.2874 72.3569C14.8496 72.3569 14.4465 72.1332 14.2159 71.7222C13.8928 71.1396 14.1051 70.3941 14.6845 70.0721C14.6846 70.072 14.6847 70.0719 14.6847 70.0719L34.0616 59.378L35.5955 58.5315L33.8459 58.441C29.6692 58.2247 25.5684 57.7586 22.2283 57.0182C20.5579 56.6479 19.0897 56.2117 17.9022 55.7097C16.733 55.2154 15.8748 54.6734 15.3546 54.1011C15.3206 54.0442 15.2864 53.9981 15.261 53.9651C15.2402 53.9381 15.228 53.9227 15.2199 53.9124C15.2102 53.9003 15.2064 53.8954 15.2007 53.887L15.1733 53.8458L15.1686 53.8411L15.1672 53.838L15.1565 53.8144C15.1533 53.8073 15.1493 53.7986 15.1446 53.7891C15.0782 53.6453 15.0169 53.5213 14.9579 53.4021C14.8761 53.2367 14.7989 53.0805 14.7187 52.8933L14.5888 52.5903H14.5803C13.4066 49.9491 12.6536 47.2901 12.2391 44.7157L12.2003 44.4749L11.9867 44.3572L5.47557 40.7704C5.47529 40.7702 5.47501 40.7701 5.47473 40.7699C4.89557 40.4476 4.68354 39.7019 5.00713 39.1194L4.57005 38.8766L5.00713 39.1194C5.32924 38.5396 6.07535 38.3272 6.65809 38.651L6.65847 38.6512L11.0688 41.0963L11.8537 41.5315L11.8107 40.6351C11.4044 32.17 13.9802 25.2782 14.5634 23.8203L14.5861 23.7636L14.5944 23.7031C14.7145 22.8353 15.3021 22.0213 16.5741 21.2651C17.8512 20.5059 19.7552 19.8457 22.3634 19.2787L22.3638 19.2786C26.8204 18.3058 32.7927 17.759 39.0988 17.759C45.4042 17.759 51.3537 18.3057 55.8336 19.2785C58.3511 19.8343 60.2135 20.4667 61.4887 21.1927C62.7619 21.9175 63.3873 22.6978 63.5635 23.5322L63.5731 23.578L63.5911 23.6213C63.9234 24.4188 66.8615 31.6499 66.4325 40.6352L66.3898 41.5313L67.1744 41.0963L71.5848 38.6512L71.5851 38.651C72.1679 38.3272 72.914 38.5396 73.2361 39.1194C73.5596 39.7018 73.3477 40.4473 72.7688 40.7697C72.7684 40.77 72.7681 40.7702 72.7677 40.7704L66.2565 44.3572ZM60.8155 24.4194L61.3307 24.0231L60.8155 23.6268C60.128 23.0979 58.2758 22.1885 54.2746 21.4296C50.0762 20.6223 44.6733 20.1868 39.0759 20.1868C33.4786 20.1868 28.0756 20.6223 23.8772 21.4296C19.876 22.1885 18.0239 23.0979 17.3363 23.6268L16.8211 24.0231L17.3363 24.4194C18.0239 24.9483 19.876 25.8577 23.8773 26.6166C28.0757 27.4239 33.4786 27.8594 39.0759 27.8594C44.6733 27.8594 50.0762 27.4239 54.2746 26.6166C58.2758 25.8577 60.128 24.9483 60.8155 24.4194ZM15.3054 32.9907L14.6795 32.6778L14.5862 33.3713C14.2169 36.1183 14.0311 39.3115 14.3556 42.6723L14.3809 42.9348L14.6118 43.0621L38.1489 56.0418L38.2616 56.104H38.3904H38.3917H38.393H38.3944H38.3957H38.397H38.3984H38.3997H38.4011H38.4024H38.4037H38.4051H38.4064H38.4077H38.4091H38.4104H38.4117H38.4131H38.4144H38.4157H38.417H38.4184H38.4197H38.421H38.4224H38.4237H38.425H38.4263H38.4277H38.429H38.4303H38.4316H38.433H38.4343H38.4356H38.4369H38.4382H38.4396H38.4409H38.4422H38.4435H38.4448H38.4462H38.4475H38.4488H38.4501H38.4514H38.4528H38.4541H38.4554H38.4567H38.458H38.4593H38.4606H38.462H38.4633H38.4646H38.4659H38.4672H38.4685H38.4698H38.4711H38.4725H38.4738H38.4751H38.4764H38.4777H38.479H38.4803H38.4816H38.4829H38.4842H38.4855H38.4868H38.4882H38.4895H38.4908H38.4921H38.4934H38.4947H38.496H38.4973H38.4986H38.4999H38.5012H38.5025H38.5038H38.5051H38.5064H38.5077H38.509H38.5103H38.5116H38.5129H38.5142H38.5155H38.5168H38.5181H38.5194H38.5207H38.522H38.5233H38.5246H38.5259H38.5272H38.5285H38.5298H38.5311H38.5323H38.5336H38.5349H38.5362H38.5375H38.5388H38.5401H38.5414H38.5427H38.544H38.5453H38.5466H38.5479H38.5492H38.5504H38.5517H38.553H38.5543H38.5556H38.5569H38.5582H38.5595H38.5608H38.562H38.5633H38.5646H38.5659H38.5672H38.5685H38.5698H38.5711H38.5723H38.5736H38.5749H38.5762H38.5775H38.5788H38.5801H38.5813H38.5826H38.5839H38.5852H38.5865H38.5878H38.589H38.5903H38.5916H38.5929H38.5942H38.5955H38.5967H38.598H38.5993H38.6006H38.6019H38.6031H38.6044H38.6057H38.607H38.6083H38.6095H38.6108H38.6121H38.6134H38.6147H38.6159H38.6172H38.6185H38.6198H38.6211H38.6223H38.6236H38.6249H38.6262H38.6274H38.6287H38.63H38.6313H38.6326H38.6338H38.6351H38.6364H38.6377H38.6389H38.6402H38.6415H38.6428H38.644H38.6453H38.6466H38.6479H38.6491H38.6504H38.6517H38.653H38.6542H38.6555H38.6568H38.6581H38.6593H38.6606H38.6619H38.6632H38.6644H38.6657H38.667H38.6683H38.6695H38.6708H38.6721H38.6734H38.6746H38.6759H38.6772H38.6785H38.6797H38.681H38.6823H38.6835H38.6848H38.6861H38.6874H38.6886H38.6899H38.6912H38.6925H38.6937H38.695H38.6963H38.6975H38.6988H38.7001H38.7014H38.7026H38.7039H38.7052H38.7064H38.7077H38.709H38.7103H38.7115H38.7128H38.7141H38.7154H38.7166H38.7179H38.7192H38.7204H38.7217H38.723H38.7243H38.7255H38.7268H38.7281H38.7293H38.7306H38.7319H38.7332H38.7344H38.7357H38.737H38.7383H38.7395H38.7408H38.7421H38.7433H38.7446H38.7459H38.7472H38.7484H38.7497H38.751H38.7522H38.7535H38.7548H38.7561H38.7573H38.7586H38.7599H38.7612H38.7624H38.7637H38.765H38.7662H38.7675H38.7688H38.7701H38.7713H38.7726H38.7739H38.7752H38.7764H38.7777H38.779H38.7803H38.7815H38.7828H38.7841H38.7854H38.7866H38.7879H38.7892H38.7905H38.7917H38.793H38.7943H38.7956H38.7968H38.7981H38.7994H38.8007H38.8019H38.8032H38.8045H38.8058H38.807H38.8083H38.8096H38.8109H38.8121H38.8134H38.8147H38.816H38.8173H38.8185H38.8198H38.8211H38.8224H38.8237H38.8249H38.8262H38.8275H38.8288H38.83H38.8313H38.8326H38.8339H38.8352H38.8364H38.8377H38.839H38.8403H38.8416H38.8428H38.8441H38.8454H38.8467H38.848H38.8493H38.8505H38.8518H38.8531H38.8544H38.8557H38.857H38.8582H38.8595H38.8608H38.8621H38.8634H38.8647H38.8659H38.8672H38.8685H38.8698H38.8711H38.8724H38.8737H38.8749H38.8762H38.8775H38.8788H38.8801H38.8814H38.8827H38.884H38.8852H38.8865H38.8878H38.8891H38.8904H38.8917H38.893H38.8943H38.8956H38.8969H38.8981H38.8994H38.9007H38.902H38.9033H38.9046H38.9059H38.9072H38.9085H38.9098H38.9111H38.9124H38.9137H38.915H38.9163H38.9176H38.9188H38.9201H38.9214H38.9227H38.924H38.9253H38.9266H38.9279H38.9292H38.9305H38.9318H38.9331H38.9344H38.9357H38.937H38.9383H38.9396H38.9409H38.9422H38.9435H38.9448H38.9461H38.9474H38.9487H38.9501H38.9514H38.9527H38.954H38.9553H38.9566H38.9579H38.9592H38.9605H38.9618H38.9631H38.9644H38.9657H38.967H38.9683H38.9697H38.971H38.9723H38.9736H38.9749H38.9762H38.9775H38.9788H38.9802H38.9815H38.9828H38.9841H38.9854H38.9867H38.988H38.9894H38.9907H38.992H38.9933H38.9946H38.9959H38.9973H38.9986H38.9999H39.0012H39.0025H39.0039H39.0052H39.0065H39.0078H39.0091H39.0105H39.0118H39.0131H39.0144H39.0158H39.0171H39.0184H39.0197H39.0211H39.0224H39.0237H39.0251H39.0264H39.0277H39.029H39.0304H39.0317H39.033H39.0344H39.0357H39.037H39.0384H39.0397H39.041H39.0424H39.0437H39.045H39.0464H39.0477H39.049H39.0504H39.0517H39.0531H39.0544H39.0557H39.0571H39.0584H39.0597H39.0611H39.0624H39.0638H39.0651H39.0664H39.0678H39.0691H39.0704H39.0718H39.0731H39.0744H39.0758H39.0771H39.0784H39.0797H39.0811H39.0824H39.0837H39.0851H39.0864H39.0877H39.089H39.0904H39.0917H39.093H39.0943H39.0957H39.097H39.0983H39.0996H39.1009H39.1023H39.1036H39.1049H39.1062H39.1075H39.1089H39.1102H39.1115H39.1128H39.1141H39.1155H39.1168H39.1181H39.1194H39.1207H39.122H39.1233H39.1247H39.126H39.1273H39.1286H39.1299H39.1312H39.1325H39.1338H39.1352H39.1365H39.1378H39.1391H39.1404H39.1417H39.143H39.1443H39.1456H39.1469H39.1482H39.1495H39.1509H39.1522H39.1535H39.1548H39.1561H39.1574H39.1587H39.16H39.1613H39.1626H39.1639H39.1652H39.1665H39.1678H39.1691H39.1704H39.1717H39.173H39.1743H39.1756H39.1769H39.1782H39.1795H39.1808H39.1821H39.1834H39.1847H39.186H39.1873H39.1886H39.1899H39.1912H39.1925H39.1938H39.195H39.1963H39.1976H39.1989H39.2002H39.2015H39.2028H39.2041H39.2054H39.2067H39.208H39.2093H39.2106H39.2118H39.2131H39.2144H39.2157H39.217H39.2183H39.2196H39.2209H39.2222H39.2235H39.2247H39.226H39.2273H39.2286H39.2299H39.2312H39.2325H39.2338H39.235H39.2363H39.2376H39.2389H39.2402H39.2415H39.2428H39.244H39.2453H39.2466H39.2479H39.2492H39.2505H39.2517H39.253H39.2543H39.2556H39.2569H39.2582H39.2594H39.2607H39.262H39.2633H39.2646H39.2658H39.2671H39.2684H39.2697H39.271H39.2722H39.2735H39.2748H39.2761H39.2774H39.2786H39.2799H39.2812H39.2825H39.2838H39.285H39.2863H39.2876H39.2889H39.2901H39.2914H39.2927H39.294H39.2953H39.2965H39.2978H39.2991H39.3004H39.3016H39.3029H39.3042H39.3055H39.3067H39.308H39.3093H39.3106H39.3118H39.3131H39.3144H39.3157H39.3169H39.3182H39.3195H39.3208H39.322H39.3233H39.3246H39.3259H39.3271H39.3284H39.3297H39.331H39.3322H39.3335H39.3348H39.3361H39.3373H39.3386H39.3399H39.3411H39.3424H39.3437H39.345H39.3462H39.3475H39.3488H39.3501H39.3513H39.3526H39.3539H39.3552H39.3564H39.3577H39.359H39.3602H39.3615H39.3628H39.3641H39.3653H39.3666H39.3679H39.3691H39.3704H39.3717H39.373H39.3742H39.3755H39.3768H39.3781H39.3793H39.3806H39.3819H39.3831H39.3844H39.3857H39.387H39.3882H39.3895H39.3908H39.392H39.3933H39.3946H39.3959H39.3971H39.3984H39.3997H39.4009H39.4022H39.4035H39.4048H39.406H39.4073H39.4086H39.4099H39.4111H39.4124H39.4137H39.4149H39.4162H39.4175H39.4188H39.42H39.4213H39.4226H39.4239H39.4251H39.4264H39.4277H39.4289H39.4302H39.4315H39.4328H39.434H39.4353H39.4366H39.4379H39.4391H39.4404H39.4417H39.443H39.4442H39.4455H39.4468H39.4481H39.4493H39.4506H39.4519H39.4532H39.4544H39.4557H39.457H39.4583H39.4595H39.4608H39.4621H39.4634H39.4646H39.4659H39.4672H39.4685H39.4697H39.471H39.4723H39.4736H39.4748H39.4761H39.4774H39.4787H39.48H39.4812H39.4825H39.4838H39.4851H39.4863H39.4876H39.4889H39.4902H39.4915H39.4927H39.494H39.4953H39.4966H39.4979H39.4991H39.5004H39.5017H39.503H39.5043H39.5055H39.5068H39.5081H39.5094H39.5107H39.512H39.5132H39.5145H39.5158H39.5171H39.5184H39.5196H39.5209H39.5222H39.5235H39.5248H39.5261H39.5274H39.5286H39.5299H39.5312H39.5325H39.5338H39.5351H39.5364H39.5376H39.5389H39.5402H39.5415H39.5428H39.5441H39.5454H39.5467H39.5479H39.5492H39.5505H39.5518H39.5531H39.5544H39.5557H39.557H39.5583H39.5596H39.5608H39.5621H39.5634H39.5647H39.566H39.5673H39.5686H39.5699H39.5712H39.5725H39.5738H39.5751H39.5764H39.5777H39.579H39.5802H39.5815H39.5828H39.5841H39.5854H39.5867H39.588H39.5893H39.5906H39.5919H39.5932H39.5945H39.5958H39.5971H39.5984H39.5997H39.601H39.6023H39.6036H39.6049H39.6062H39.6075H39.6088H39.6101H39.6114H39.6128H39.6141H39.6154H39.6167H39.618H39.6193H39.6206H39.6219H39.6232H39.6245H39.6258H39.6271H39.6284H39.6297H39.631H39.6324H39.6337H39.635H39.6363H39.6376H39.6389H39.6402H39.6415H39.6429H39.6442H39.6455H39.6468H39.6481H39.6494H39.6507H39.6521H39.6534H39.6547H39.656H39.6573H39.6586H39.66H39.6613H39.6626H39.6639H39.6652H39.6666H39.6679H39.6692H39.6705H39.6718H39.6732H39.6745H39.6758H39.6771H39.6785H39.6798H39.6811H39.6824H39.6838H39.6851H39.6864H39.6878H39.6891H39.6904H39.6917H39.6931H39.6944H39.6957H39.6971H39.6984H39.6997H39.7011H39.7024H39.7037H39.7051H39.7064H39.7077H39.7091H39.7104H39.7117H39.7131H39.7144H39.7158H39.8445L39.9572 56.0418L63.4943 43.0621L63.7218 42.9366L63.7499 42.6784C64.1211 39.2685 63.9351 36.0492 63.5422 33.2987L63.4228 32.4627L62.7472 32.9694C62.6593 33.0353 62.5895 33.0873 62.5061 33.1383C61.7206 33.5418 60.8722 33.9431 59.9822 34.2991L59.9735 34.3026L59.9648 34.3064C59.8241 34.369 59.6649 34.4004 59.5281 34.4004C59.0688 34.4004 58.6109 34.1121 58.4135 33.6358C58.1573 33.0099 58.4557 32.3152 59.0764 32.0503C59.9156 31.7235 60.7056 31.3516 61.4225 30.9817C61.7593 30.8141 62.0949 30.8032 62.3945 30.9136L63.24 31.2251L63.0569 30.3428C62.8017 29.1131 62.5005 28.0248 62.2478 27.1518L62.0691 26.5345L61.5147 26.8595C60.2565 27.5971 58.3741 28.2461 55.8356 28.79L55.8337 28.7905C51.3771 29.7632 45.4049 30.31 39.0988 30.31C32.793 30.31 26.8433 29.7633 22.3633 28.7903L22.3628 28.7902C19.8502 28.247 17.9844 27.5974 16.6969 26.8773L16.1594 26.5767L15.9756 27.1646C15.7428 27.9097 15.5111 28.7675 15.2803 29.7598L15.1994 30.1078L15.5023 30.2971C15.8746 30.5298 16.2769 30.7667 16.7065 30.9817C17.2973 31.2865 17.5273 32.005 17.2233 32.6074C16.9893 33.0186 16.5632 33.2579 16.1329 33.2579C15.9127 33.2579 15.7282 33.221 15.5726 33.1361L15.5647 33.1318L15.5567 33.1278C15.5252 33.112 15.4966 33.0958 15.4555 33.0724L15.4523 33.0705C15.4138 33.0485 15.3636 33.0198 15.3054 32.9907ZM15.9177 46.5512L14.893 45.9853L15.1926 47.1169C15.6071 48.6828 16.1589 50.2727 16.871 51.8411C16.8715 51.8427 16.872 51.8443 16.8726 51.8459C16.8843 51.8812 16.9006 51.9182 16.9223 51.9552C16.9572 52.0415 16.9941 52.1205 17.0252 52.1873L17.0281 52.1934C17.0693 52.2817 17.1009 52.3501 17.1273 52.4203L17.171 52.5368L17.2642 52.6193C17.6252 52.9386 18.1963 53.2483 18.924 53.5433C19.6621 53.8424 20.5986 54.1411 21.721 54.4235C23.9665 54.9885 26.9819 55.4949 30.6934 55.8051L30.9768 54.8692L15.9177 46.5512ZM47.2212 54.8689L47.5058 55.805C51.205 55.4833 54.2195 54.9771 56.4667 54.4182C57.5899 54.1388 58.5279 53.8447 59.2671 53.551C59.9956 53.2616 60.568 52.9583 60.9293 52.6457L61.0068 52.5786L61.0516 52.4865C61.914 50.7151 62.5415 48.901 63.0051 47.139L63.302 46.0111L62.2804 46.5738L47.2212 54.8689Z" fill="white" stroke="white"/>
<path d="M4.29979 12.669L4.29981 12.669L4.29423 12.6665C3.68708 12.3948 3.42209 11.6912 3.69992 11.0671C3.97483 10.4719 4.68455 10.1966 5.3001 10.4703L11.3299 13.2568L11.3299 13.2569L11.3355 13.2594C11.9434 13.5313 12.2083 14.2363 11.9288 14.8611L11.9287 14.861L11.9256 14.8683C11.7377 15.3068 11.2909 15.5707 10.8313 15.5707C10.6655 15.5707 10.4934 15.537 10.3465 15.4635L10.3396 15.4601L10.3326 15.4569L4.29979 12.669Z" fill="white" stroke="white"/>
<path d="M14.1363 9.22454L14.119 9.23075L14.1022 9.23823C13.9802 9.29247 13.8722 9.30939 13.7111 9.30939C13.1907 9.30939 12.7408 9.01167 12.5874 8.53617L12.5841 8.5261L12.5805 8.51618L10.2725 2.2777L10.2725 2.27769L10.2702 2.2717C10.0288 1.64412 10.349 0.953818 10.9779 0.728037L10.978 0.728157L10.9885 0.724113C11.6161 0.482738 12.3064 0.80288 12.5321 1.43184L12.5321 1.43185L12.5338 1.4364L14.8418 7.67488L14.8418 7.67489L14.8441 7.68088C15.0854 8.30845 14.7653 8.99876 14.1363 9.22454Z" fill="white" stroke="white"/>
<path d="M2.13433 24.0568L2.11935 24.0624L2.10475 24.0689C1.98272 24.1231 1.87475 24.14 1.71368 24.14C1.21254 24.14 0.761804 23.8344 0.583507 23.3482L0.583565 23.3482L0.580741 23.3408C0.339366 22.7132 0.659508 22.0229 1.28847 21.7972L1.28848 21.7972L1.29303 21.7955L7.5315 19.4875L7.53152 19.4875L7.5375 19.4852C8.16508 19.2438 8.85538 19.564 9.08117 20.1929L9.08105 20.193L9.08509 20.2035C9.32646 20.8311 9.00632 21.5214 8.37736 21.7472L8.37735 21.7471L8.37281 21.7488L2.13433 24.0568Z" fill="white" stroke="white"/>
<path d="M67.8645 15.4798L67.8575 15.483L67.8506 15.4864C67.7037 15.5599 67.5315 15.5936 67.3658 15.5936C66.9277 15.5936 66.4837 15.3247 66.2655 14.8775C65.9871 14.2464 66.2637 13.5341 66.8515 13.2866L66.8594 13.2833L66.8672 13.2797L72.899 10.4923C72.8991 10.4922 72.8993 10.4921 72.8995 10.4921C73.4983 10.2172 74.224 10.4794 74.4961 11.0876L74.4961 11.0876L74.4982 11.0922C74.7734 11.6911 74.5113 12.4171 73.9029 12.6893L73.9028 12.6893L73.8973 12.6919L67.8645 15.4798Z" fill="white" stroke="white"/>
<path d="M65.6643 1.45925L65.6646 1.45861C65.888 0.852305 66.5829 0.522095 67.2202 0.750884C67.8492 0.976666 68.1693 1.66698 67.928 2.29455L67.9279 2.29453L67.9257 2.30055L65.6177 8.53902L65.6172 8.54039C65.4389 9.02665 64.9881 9.33224 64.487 9.33224C64.3617 9.33224 64.2397 9.30613 64.0588 9.24625C63.4576 9.02042 63.1308 8.32962 63.3573 7.69526L65.6643 1.45925Z" fill="white" stroke="white"/>
<path d="M76.904 21.7953L76.9052 21.7957C77.511 22.0189 77.8411 22.7129 77.6135 23.3498C77.4348 23.8351 76.9845 24.1401 76.4839 24.1401C76.3566 24.1401 76.2352 24.1128 76.0882 24.0576L76.0861 24.0569L69.8476 21.7489L69.847 21.7486C69.2413 21.5255 68.9111 20.8317 69.1385 20.1949C69.3624 19.5906 70.0551 19.2614 70.6911 19.4883L76.904 21.7953Z" fill="white" stroke="white"/>
</svg>
