<svg width="89" height="89" viewBox="0 0 89 89" fill="none" xmlns="http://www.w3.org/2000/svg">
<path d="M36.6153 59.9575L35.1748 62.8564L37.2289 68.6744C38.566 68.1324 39.6187 66.8878 39.9105 65.2787C40.3533 62.8376 38.8815 60.4776 36.6153 59.9575Z" fill="white"/>
<path d="M27.9384 15.7513C32.0122 15.7513 35.3148 12.2253 35.3148 7.87579C35.3148 3.52628 32.0122 0.000305176 27.9384 0.000305176C23.8645 0.000305176 20.562 3.52628 20.562 7.87579C20.562 12.2253 23.8645 15.7513 27.9384 15.7513Z" fill="white"/>
<path d="M61.3153 61.538L62.036 63.6359L58.0969 83.4945C57.6083 85.9582 59.083 88.3783 61.3905 88.9003C61.6889 88.9678 61.9864 89 62.2794 89C64.2546 89 66.028 87.5289 66.4536 85.3836L70.5151 64.9069L68.9457 63.4626L61.3153 61.538Z" fill="white"/>
<path d="M57.0812 15.7516C61.1553 15.7516 64.4579 12.2255 64.4579 7.87579C64.4579 3.52611 61.1553 0 57.0812 0C53.0072 0 49.7046 3.52611 49.7046 7.87579C49.7046 12.2255 53.0072 15.7516 57.0812 15.7516Z" fill="white"/>
<path d="M31.4334 62.6019L36.1723 52.8909C36.9812 51.2335 37.4035 49.3921 37.4035 47.5234V23.4297C37.4035 20.4916 35.1726 18.1094 32.4203 18.1094H23.534L14.6574 19.1001L5.75394 11.6557C4.20612 10.3616 1.96952 10.6525 0.75711 12.3048C-0.454726 13.9573 -0.182803 16.3456 1.36502 17.6397L11.3669 26.0025C11.9954 26.5281 12.7687 26.8105 13.5614 26.8105C13.6591 26.8105 18.5511 26.3816 18.5511 26.3816V28.7859L19.0551 28.8683L28.9377 21.9951L19.8276 32.6848L7.76702 30.7158C5.861 30.4048 3.99342 31.705 3.62611 33.726C3.31717 35.4251 4.11358 37.0582 5.45753 37.8154C5.79978 38.0082 6.17734 38.1447 6.58167 38.2103L20.6382 40.5052C21.8165 40.6974 23.0064 40.2474 23.8088 39.3062L33.8685 27.5018L26.8067 41.0561C26.6681 41.3221 26.5007 41.5702 26.3076 41.7942C24.9898 43.3218 23.122 44.1967 21.1764 44.1967C20.8247 44.1967 20.4699 44.1679 20.1217 44.111L18.5514 43.8547V46.2262L8.88575 56.1969C7.73998 57.3786 7.30575 59.1427 7.75905 60.7734C8.21207 62.4037 9.47743 63.6295 11.0412 63.9532L19.7681 65.7578L19.5634 65.1781C18.7852 62.9734 18.9315 60.518 19.9657 58.4368L23.7971 50.7255H27.6649L22.9842 60.1459C22.4096 61.3023 22.3281 62.6664 22.7607 63.8912L30.5823 86.0463C31.2276 87.8736 32.8531 88.9994 34.5798 88.9994C35.0803 88.9994 35.5894 88.9048 36.0852 88.7051C38.2924 87.8168 39.4075 85.1863 38.5755 82.8299L31.4334 62.6019Z" fill="white"/>
<path d="M87.5174 63.6979L75.3304 52.4817C74.8111 52.0035 74.1912 51.6661 73.5238 51.4977L71.0021 50.8617C70.8518 51.5943 70.5955 52.3142 70.2251 52.997C68.9817 55.288 66.6676 56.711 64.1861 56.711C63.7428 56.711 63.2975 56.6654 62.863 56.5754C62.0982 56.4173 61.3675 56.1249 60.6916 55.7063L48.3881 48.0937C48.1171 47.9259 47.8602 47.7393 47.6162 47.538V50.9024C47.688 52.8994 48.9966 54.6821 50.9069 55.1642L70.544 60.117L81.94 70.6054C82.7467 71.3478 83.7381 71.7117 84.7256 71.7117C84.7258 71.7117 84.7264 71.7117 84.7267 71.7117C85.9263 71.7117 87.1191 71.1748 87.9636 70.129C89.504 68.2214 89.3038 65.3422 87.5174 63.6979Z" fill="white"/>
<path d="M50.1016 44.9376L62.4048 52.5501C62.7584 52.769 63.1328 52.9153 63.5127 52.994C64.9594 53.2931 66.4882 52.6061 67.2689 51.1679C68.2547 49.352 67.6749 47.027 65.9739 45.9746L55.3217 39.3835L54.4925 24.958L58.1631 36.925L66.4685 42.0639V30.5334L72.1459 35.5029C72.8002 36.0757 73.6003 36.3642 74.4027 36.3642C75.1333 36.3642 75.866 36.1246 76.4901 35.6419L86.8163 27.6569C88.4086 26.4257 88.7642 24.0499 87.6113 22.3503C86.4581 20.6506 84.2326 20.2706 82.641 21.5015L74.5371 27.7679L65.009 19.4276C64.6656 19.1269 63.2951 18.1088 61.4854 18.1088H52.599C46.9274 18.1088 47.1956 22.0864 47.2716 23.4097L48.3331 41.8815C48.4069 43.1528 49.0703 44.2995 50.1016 44.9376Z" fill="white"/>
</svg>
