<svg width="89" height="89" viewBox="0 0 89 89" fill="none" xmlns="http://www.w3.org/2000/svg">
<path d="M84.892 34.4291C84.5721 33.8895 83.9908 33.5335 83.3261 33.5335C83.2566 33.5335 83.1898 33.5363 83.1231 33.5446H83.1314C82.5168 33.5586 81.7909 33.5669 81.065 33.5669C71.2472 33.5669 61.7909 32.0122 52.9326 29.1364L53.5751 29.3171C54.9435 23.4932 55.9837 16.5707 56.4787 9.49518L56.5038 9.06965C56.5065 9.02515 56.5093 8.9723 56.5093 8.92224C56.5093 7.7708 55.5748 6.8363 54.4234 6.8363C54.1842 6.8363 53.9534 6.87524 53.7392 6.95034L53.7531 6.94477C45.7348 9.69821 36.4927 11.2891 26.8807 11.2891C19.566 11.2891 12.4682 10.3685 5.6931 8.63577L6.28272 8.76371C6.14088 8.73034 5.97957 8.71087 5.81547 8.71087C5.26757 8.71087 4.76694 8.91946 4.39147 9.26155L4.39425 9.25877C3.97985 9.64259 3.72119 10.1877 3.72119 10.794C3.72119 10.8997 3.72953 11.0054 3.74344 11.1083V11.0972C7.90697 39.2796 17.1546 57.1602 28.6217 59.5438C30.7104 71.7896 35.6527 79.6911 43.1454 81.6992C44.2412 82.0024 45.4983 82.1776 46.7944 82.1776C46.7972 82.1776 46.8028 82.1776 46.8055 82.1776C59.5937 82.1776 73.9505 65.2008 85.1284 36.3787C85.2174 36.1562 85.2674 35.8948 85.2674 35.625C85.2674 35.1745 85.1256 34.7573 84.8836 34.418L84.8892 34.4235L84.892 34.4291ZM8.34085 13.4891C13.9451 14.7434 20.3837 15.461 26.9891 15.461C35.9392 15.461 44.5805 14.1426 52.7324 11.6868L52.101 11.8509C51.542 17.9696 50.6604 23.4765 49.4422 28.8527L49.6063 27.9905C43.0258 25.5847 37.4077 22.8869 32.0983 19.7218L32.5683 19.9805C32.2652 19.8025 31.898 19.6968 31.5087 19.6968C31.186 19.6968 30.8773 19.7691 30.6048 19.8998L30.6187 19.8943C30.004 20.1919 29.5618 20.762 29.4533 21.4462L29.4505 21.4573C29.3476 22.1137 29.2781 22.7395 29.1835 23.3875C29.0723 22.8952 28.7942 22.4808 28.4159 22.1944L28.4103 22.1916C28.071 21.9441 27.6455 21.7939 27.1838 21.7939C26.4941 21.7939 25.8822 22.1276 25.5012 22.6449L25.4984 22.6505C24.5694 23.9299 23.1899 25.4568 21.88 25.479H21.8494C20.6145 25.479 19.299 24.1329 18.4118 22.9954C18.0279 22.4947 17.4272 22.1749 16.7541 22.1749C15.6027 22.1749 14.6682 23.1094 14.6682 24.2608C14.6682 24.7559 14.8406 25.2092 15.1271 25.568L15.1243 25.5652C16.5845 27.8486 19.0097 29.4034 21.8132 29.6481L21.8466 29.6509H21.9523C24.931 29.3255 27.4425 27.5983 28.847 25.1508L28.8693 25.1063C28.9054 25.0396 28.9443 24.9617 28.9749 24.8783L28.9805 24.8644C28.288 29.9346 27.8207 34.774 27.6177 39.2963C25.821 40.4616 24.3052 41.894 23.087 43.5544L23.0537 43.6016C22.7894 43.9465 22.6309 44.386 22.6309 44.8588C22.6309 46.0102 23.5654 46.9447 24.7168 46.9447C25.3955 46.9447 25.9962 46.6221 26.3773 46.1215L26.38 46.1159C26.7583 45.6153 27.1198 45.276 27.4898 44.8615C27.4898 44.9339 27.4898 45.0201 27.4898 45.1091C27.4898 48.5996 27.6761 52.0427 28.0377 55.4359L28.0015 55.0131C21.1513 52.2402 12.7547 40.2169 8.34363 13.4835L8.34085 13.4891ZM44.2273 77.6747C35.2884 75.2801 28.555 58.1087 33.1301 25.1063C46.6442 32.8744 62.8061 37.5357 80.0415 37.7443H80.1027C67.5704 68.5773 53.1829 80.0555 44.2273 77.6747ZM38.9568 44.8226C40.2334 43.7852 42.0691 42.6199 43.4625 42.9647C44.9421 43.3291 46.0908 45.3566 46.7944 46.9976C47.1226 47.7457 47.8568 48.2602 48.7107 48.2602C49.8621 48.2602 50.7966 47.3257 50.7966 46.1743C50.7966 45.8767 50.7354 45.593 50.6214 45.3371L50.627 45.3511C49.7036 42.3223 47.4313 39.9582 44.5249 38.9319L44.4554 38.9097C44.0271 38.8401 43.5348 38.8012 43.0342 38.8012C40.4114 38.8012 38.039 39.8664 36.323 41.5852C35.8502 41.9718 35.5498 42.5531 35.5498 43.2039C35.5498 44.3554 36.4843 45.2899 37.6358 45.2899C38.1392 45.2899 38.6008 45.1119 38.9596 44.8143L38.9568 44.8171V44.8226ZM57.4188 49.7705C58.6898 48.7358 60.5699 47.5621 61.9161 47.9126C63.3985 48.2769 64.5499 50.3072 65.2508 51.9426C65.5762 52.6936 66.3132 53.2109 67.1698 53.2109C68.3213 53.2109 69.2558 52.2764 69.2558 51.1249C69.2558 50.8273 69.1946 50.5436 69.0806 50.2878L69.0861 50.3017C68.1628 47.2701 65.8849 44.9061 62.9785 43.8798L62.909 43.8575C62.4751 43.788 61.9773 43.7463 61.4683 43.7463C58.8511 43.7463 56.4843 44.8115 54.7794 46.5359C54.3066 46.9225 54.009 47.5037 54.009 48.1546C54.009 49.306 54.9435 50.2405 56.0949 50.2405C56.5983 50.2405 57.0628 50.0625 57.4243 49.7621L57.4216 49.7649L57.4188 49.7705ZM55.7 61.346C54.2009 63.0231 52.0315 64.0744 49.6146 64.0744C49.4589 64.0744 49.3031 64.0689 49.1501 64.0605H49.1724C47.2672 63.6322 45.49 61.6047 43.8824 58.0419C43.5459 57.3132 42.8228 56.8154 41.9801 56.8154C40.8286 56.8154 39.8941 57.7499 39.8941 58.9013C39.8941 59.2128 39.9609 59.5076 40.0833 59.7718L40.0777 59.7579C42.2832 64.6474 44.956 67.3841 48.2518 68.1295C48.7608 68.2491 49.3476 68.3186 49.9511 68.3186C49.9623 68.3186 49.9734 68.3186 49.9845 68.3186C53.2831 68.0711 56.2089 66.6693 58.4061 64.525L58.4034 64.5278C58.8539 64.1412 59.1404 63.5738 59.1404 62.9369C59.1404 61.7827 58.2059 60.8482 57.0517 60.8482C56.5344 60.8482 56.0615 61.0373 55.6972 61.3488L55.7 61.346Z" fill="white" stroke="white"/>
</svg>
