<svg width="89" height="87" viewBox="0 0 89 87" fill="none" xmlns="http://www.w3.org/2000/svg">
<path d="M33.8832 65.9218L33.8825 65.9197C32.9653 62.737 30.559 60.0886 28.3221 57.6265L28.2688 57.568L28.2674 57.5664C27.518 56.7484 26.8188 55.9764 26.1779 55.2014L26.1774 55.2008C22.9805 51.3483 21.2852 46.7408 21.2852 41.8554C21.2852 29.9367 31.5346 20.1965 44.1837 20.1965C56.8297 20.1965 67.0765 29.9366 67.0765 41.8554C67.0765 46.7442 65.3893 51.3566 62.1847 55.2056L62.1828 55.2079C61.6843 55.814 61.1174 56.4457 60.5139 57.1182C60.4342 57.207 60.3538 57.2966 60.2729 57.3869L60.2187 57.4473C57.929 59.9991 55.2746 62.9574 54.3486 66.1174L54.3479 66.1199C54.1692 66.7415 54.0948 67.7859 54.1061 69.1569V70.8993C54.1061 71.9609 53.1936 72.8671 52.0098 72.8671H36.2265C35.0386 72.8671 34.1273 71.9598 34.1273 70.9047V69.1768C34.1442 67.6912 34.0701 66.5816 33.8832 65.9218ZM38.3314 68.4425L38.3369 68.9369H38.8314H49.4106H49.9032L49.9105 68.4443C49.9385 66.5629 50.1307 65.6638 50.2951 65.0999C51.4634 61.1149 54.3657 57.8568 57.0157 54.9094L57.0161 54.9089L57.1037 54.8112C57.7587 54.0809 58.3433 53.4292 58.8653 52.8065L58.8669 52.8046C61.4841 49.6504 62.8752 45.869 62.8752 41.8581C62.8752 32.053 54.469 24.1213 44.1865 24.1213C33.9042 24.1213 25.4921 32.0528 25.4921 41.8581C25.4921 45.8603 26.88 49.6443 29.4999 52.7985C30.0726 53.4928 30.6954 54.174 31.3436 54.8831C31.3869 54.9304 31.4304 54.978 31.4739 55.0256C33.8879 57.6815 36.7792 60.8732 37.9452 64.9026C38.1092 65.5075 38.309 66.4559 38.3314 68.4425Z" fill="white" stroke="white"/>
<path d="M52.0099 79.3876H36.2266C35.0392 79.3876 34.1274 78.4834 34.1274 77.4198C34.1274 76.3606 35.0374 75.4601 36.2266 75.4601H52.0099C53.196 75.4601 54.1063 76.3603 54.1063 77.4198C54.1063 78.4837 53.1942 79.3876 52.0099 79.3876Z" fill="white" stroke="white"/>
<path d="M48.0654 85.9H40.1737C38.9841 85.9 38.0688 84.9937 38.0688 83.9376C38.0688 82.8777 38.9852 81.9698 40.1737 81.9698H48.0654C49.245 81.9698 50.1646 82.8774 50.1646 83.9376C50.1646 84.9941 49.2461 85.9 48.0654 85.9Z" fill="white" stroke="white"/>
<path d="M85.7707 43.8205H75.3739C74.186 43.8205 73.269 42.9186 73.269 41.8581C73.269 40.7999 74.1864 39.8957 75.3739 39.8957H85.7707C86.9561 39.8957 87.8671 40.7979 87.8671 41.8581C87.8671 42.9207 86.9564 43.8205 85.7707 43.8205Z" fill="white" stroke="white"/>
<path d="M15.098 41.8581L15.098 41.8591C15.1003 42.9186 14.1842 43.8205 12.996 43.8205H2.59635C1.41064 43.8205 0.5 42.9207 0.5 41.8581C0.5 40.7979 1.41101 39.8957 2.59635 39.8957H12.9931C14.1807 39.8957 15.098 40.7999 15.098 41.8581Z" fill="white" stroke="white"/>
<path d="M44.1835 14.2798C42.9931 14.2798 42.0786 13.3782 42.0786 12.3174V2.4624C42.0786 1.40626 42.9939 0.5 44.1835 0.5C45.3717 0.5 46.2827 1.40488 46.2827 2.4624V12.3147C46.2827 13.3776 45.3717 14.2798 44.1835 14.2798Z" fill="white" stroke="white"/>
<path d="M64.7367 64.1266L64.7361 64.126C63.9312 63.3655 63.9295 62.1341 64.7366 61.3668C65.5603 60.5891 66.9027 60.5928 67.7254 61.3722L75.0756 68.3355C75.8851 69.1024 75.8844 70.3338 75.0761 71.0974L75.0745 71.0989C74.6687 71.4855 74.1347 71.6791 73.5783 71.6791C73.037 71.6791 72.4984 71.4824 72.0869 71.0926C72.0869 71.0926 72.0868 71.0925 72.0868 71.0925L64.7367 64.1266Z" fill="white" stroke="white"/>
<path d="M13.2828 15.3862L13.2827 15.3861C12.4736 14.6195 12.4735 13.388 13.2824 12.6213C14.1075 11.8421 15.4501 11.8428 16.2715 12.621L23.6216 19.5843L23.6222 19.5848C24.4308 20.3487 24.4308 21.5824 23.6222 22.3462L23.6206 22.3477C23.2131 22.736 22.6755 22.9333 22.1244 22.9333C21.583 22.9333 21.0412 22.7365 20.6266 22.3462C20.6265 22.3461 20.6263 22.3459 20.6262 22.3458L13.2828 15.3862Z" fill="white" stroke="white"/>
<path d="M13.2827 71.0979L13.2822 71.0974C12.4739 70.3338 12.4732 69.1024 13.2827 68.3355L20.6386 61.3668L20.6396 61.3658C21.4545 60.5894 22.7964 60.5873 23.622 61.3671C24.4309 62.1338 24.4308 63.3653 23.6216 64.1319L23.6216 64.132L16.2725 71.097C16.2723 71.0972 16.2721 71.0974 16.2719 71.0975C15.861 71.4843 15.3254 71.6791 14.7771 71.6791C14.2298 71.6791 13.6922 71.4858 13.2827 71.0979Z" fill="white" stroke="white"/>
<path d="M72.0899 12.6264L72.0909 12.6254C72.9077 11.8472 74.2604 11.8437 75.0781 12.6205L75.0786 12.621C75.8879 13.3877 75.8879 14.614 75.0786 15.3807L75.0785 15.3808L67.7341 22.3414L67.7332 22.3423C67.3237 22.7323 66.7852 22.9333 66.2369 22.9333C65.6931 22.9333 65.1544 22.7369 64.7397 22.3467C63.9388 21.5826 63.939 20.3531 64.7402 19.5892C64.7404 19.589 64.7406 19.5889 64.7407 19.5887L72.0899 12.6264Z" fill="white" stroke="white"/>
</svg>
