<svg width="89" height="89" viewBox="0 0 89 89" fill="none" xmlns="http://www.w3.org/2000/svg">
<path fill-rule="evenodd" clip-rule="evenodd" d="M77.8737 55.7144C77.88 56.4857 77.8604 57.3353 77.797 58.232C77.5522 61.7063 76.6025 66.6974 73.0922 70.2077C70.7348 72.5651 67.5768 74.0106 64.2601 74.1548C60.9285 74.2995 57.6915 73.1124 55.3311 70.7521C52.9708 68.3917 51.7834 65.1543 51.9284 61.8231C52.0726 58.5064 53.5181 55.3484 55.8755 52.991C59.3858 49.4807 64.3769 48.5306 67.8512 48.2862C68.7824 48.2206 69.6631 48.2017 70.4582 48.2102V34.0442L33.3748 40.2247V63.0417L33.3738 63.1311C33.3799 63.9028 33.3602 64.752 33.2971 65.6487C33.0524 69.123 32.1026 74.114 28.5921 77.6243C26.2347 79.9817 23.0767 81.4272 19.76 81.5715C16.4287 81.7161 13.1915 80.5291 10.8311 78.1687C8.47083 75.8084 7.28349 72.571 7.42834 69.2398C7.57256 65.9231 9.01803 62.7651 11.3753 60.4077C14.8858 56.8974 19.877 55.9473 23.3512 55.7029C24.2825 55.6373 25.1631 55.6184 25.9581 55.6269V27.9659C25.9581 20.7148 31.2004 14.5265 38.3529 13.3345L64.9209 8.90644C71.702 7.77626 77.8748 13.0055 77.8748 19.8801V55.625C77.8748 55.6551 77.8745 55.6847 77.8737 55.7144ZM70.4582 19.8801C70.4582 17.5885 68.4004 15.8455 66.1402 16.2222L39.5722 20.6502C35.996 21.2462 33.3748 24.3404 33.3748 27.9659V32.7058L70.4582 26.5252V19.8801ZM23.8722 63.101C20.9068 63.3098 18.1885 64.0834 16.6197 65.652C15.5131 66.7586 14.8979 68.184 14.838 69.5621C14.7787 70.9252 15.2606 72.1093 16.0755 72.9244C16.8905 73.7391 18.0745 74.2212 19.4379 74.1619C20.8158 74.1018 22.2411 73.4866 23.3477 72.38C24.9164 70.8114 25.6899 68.0932 25.8987 65.1276C25.9509 64.3874 25.9643 63.6814 25.9558 63.0439C25.3183 63.0354 24.6125 63.0491 23.8722 63.101ZM61.1199 58.2353C62.6885 56.6667 65.4067 55.8931 68.3722 55.6844C69.1124 55.6324 69.8181 55.6187 70.4556 55.6273C70.4645 56.2647 70.4508 56.9708 70.3988 57.711C70.1901 60.6765 69.4165 63.3947 67.8479 64.9634C66.7413 66.0699 65.3158 66.6851 63.9378 66.7452C62.5746 66.8045 61.3906 66.3225 60.5755 65.5077C59.7607 64.6926 59.2787 63.5086 59.338 62.1454C59.3981 60.7674 60.0133 59.3419 61.1199 58.2353Z" fill="white"/>
</svg>
