<svg width="72" height="84" viewBox="0 0 72 84" fill="none" xmlns="http://www.w3.org/2000/svg">
<path d="M52.9474 49.9356C50.9738 49.2372 49.0894 48.2494 47.3424 46.9974C49.5345 44.1464 51.2898 40.9007 52.5358 37.3945C53.1374 37.0101 53.6396 36.4542 53.9924 35.7821C56.3041 31.1598 56.8424 27.4692 55.6391 24.531C55.2631 23.6164 54.7114 22.8085 54.0241 22.1661C53.9793 19.5315 53.6713 16.911 53.1058 14.3548C51.8953 10.2505 49.5247 6.71104 46.3598 4.28263C43.195 1.85422 39.4118 0.671847 35.5941 0.917969C31.7817 0.679921 28.0057 1.86608 24.8473 4.29391C21.689 6.72175 19.3232 10.2567 18.1141 14.3548C17.5481 16.8988 17.24 19.5074 17.1958 22.1303C16.513 22.7632 15.9616 23.5583 15.5808 24.4593C14.3774 27.3975 14.9158 31.0882 17.2274 35.7463C17.5835 36.4063 18.0856 36.9497 18.6841 37.3228C19.9301 40.829 21.6854 44.0747 23.8774 46.9257C22.1306 48.1781 20.2463 49.1659 18.2724 49.8639C10.7991 52.5513 0.760784 58.2127 0.000784191 76.4509C-0.0156014 77.2842 0.225236 78.0978 0.681841 78.7518C1.13845 79.4058 1.78226 79.8593 2.50245 80.0341C13.4214 82.3652 24.5144 83.4932 35.6258 83.4023C46.7371 83.4934 57.8301 82.3654 68.7491 80.0341C69.4693 79.8593 70.1131 79.4058 70.5697 78.7518C71.0263 78.0978 71.2672 77.2842 71.2508 76.4509C70.4591 58.2485 60.4208 52.5871 52.9474 49.9356ZM22.3891 31.6256C21.7188 30.4478 21.3464 29.0846 21.3124 27.6842C21.9856 27.4541 22.572 26.9771 22.979 26.3284C23.3861 25.6796 23.5908 24.8959 23.5608 24.101C23.4728 21.4753 23.6964 18.8481 24.2258 16.2897C25.0418 13.6867 26.6047 11.4678 28.6652 9.98713C30.7256 8.50642 33.165 7.84913 35.5941 8.12012C38.0154 7.84443 40.4488 8.49138 42.5082 9.95837C44.5677 11.4254 46.1353 13.6284 46.9624 16.2181C47.5041 18.7867 47.7384 21.426 47.6591 24.0652C47.6291 24.8601 47.8338 25.6438 48.2408 26.2925C48.6479 26.9413 49.2343 27.4183 49.9074 27.6483C49.8682 29.0642 49.4847 30.4404 48.7991 31.6256C47.8602 32.1554 47.1435 33.0822 46.8041 34.2055C46.1391 36.7854 41.4841 46.8899 35.5941 46.8899C29.7041 46.8899 25.0491 36.7137 24.3841 34.1338C24.0335 33.0354 23.3177 32.1354 22.3891 31.6256ZM35.5941 76.4151C25.868 76.4349 16.1566 75.5601 6.55578 73.7994C7.91745 62.7274 13.8708 59.0726 20.1724 56.8152C23.348 55.7234 26.3358 54.027 29.0074 51.7988C31.0241 53.2297 33.3563 53.9886 35.7366 53.9886C38.117 53.9886 40.4491 53.2297 42.4658 51.7988C45.1055 53.9747 48.0491 55.634 51.1741 56.7077C57.5074 58.9651 63.4291 62.6199 64.7908 73.6919C55.1395 75.4865 45.3748 76.3853 35.5941 76.3793V76.4151Z" fill="white"/>
</svg>
