<svg width="104" height="104" viewBox="0 0 104 104" fill="none" xmlns="http://www.w3.org/2000/svg">
<path d="M73.4669 36.363C73.5138 38.9654 73.0859 41.5545 72.204 44.0033C71.4099 46.1408 70.1964 48.0978 68.6347 49.7592C66.9983 51.4621 65.1354 52.9318 63.0983 54.1268C60.7694 55.4968 58.3301 56.6697 55.8058 57.6334V67.3948H40.7531V52.9693C42.7772 52.4276 44.6094 51.8727 46.2496 51.3044C48.0897 50.6227 49.8241 49.6839 51.4011 48.516C52.9808 47.4779 54.3274 46.1225 55.3553 44.5361C56.3181 42.9967 56.816 41.212 56.7893 39.3965C56.8985 38.2275 56.7017 37.0501 56.2184 35.98C55.7351 34.91 54.9818 33.984 54.0325 33.293C51.6746 31.9503 48.9785 31.3186 46.2695 31.4742C43.8968 31.5331 41.5497 31.9809 39.3219 32.7998C36.829 33.6405 34.4511 34.7898 32.2434 36.2209H30.5327V23.1777C33.2692 22.1404 36.087 21.3318 38.957 20.7601C42.7484 19.921 46.62 19.4985 50.5031 19.5C56.4502 19.1826 62.3377 20.8207 67.2662 24.164C69.2197 25.5342 70.8067 27.3631 71.8879 29.4902C72.9691 31.6173 73.5113 33.9773 73.4669 36.363ZM57.0031 84.5H39.7268V73.2106H57.0031V84.5Z" fill="white"/>
</svg>
