<svg width="76" height="76" viewBox="0 0 76 76" fill="none" xmlns="http://www.w3.org/2000/svg">
<path d="M73.8 2.20873C68.3259 -3.26489 55.657 2.66918 48.5922 6.69391C48.1195 6.96332 47.8035 7.44233 47.7416 7.98309L47.1365 13.283L45.5346 10.598C45.2962 10.1984 44.9049 9.91336 44.4511 9.80916C43.9972 9.70466 43.521 9.79046 43.1321 10.0462C36.8356 14.1833 30.6037 19.2259 25.5845 24.2451C24.6645 25.1651 23.7609 26.1088 22.8991 27.05C22.6426 27.3299 22.487 27.6874 22.4566 28.0657L21.6028 38.694L20.3541 30.7346C20.226 29.9171 19.5299 29.3097 18.7025 29.2932C17.8769 29.2736 17.1555 29.8558 16.9944 30.6677L13.4116 48.7518L12.4208 43.3664C12.2709 42.5519 11.5584 41.9618 10.7296 41.9688C9.90135 41.9752 9.19746 42.575 9.06001 43.3917L4.77997 68.8158L0.50854 73.0869C-0.157795 73.7532 -0.157795 74.8337 0.50854 75.5002C0.841781 75.8333 1.27848 76 1.71504 76C2.15159 76 2.58829 75.8333 2.92168 75.5002L7.19311 71.2288L32.6168 66.9489C33.4335 66.8113 34.0337 66.1072 34.0399 65.279C34.046 64.4508 33.4568 63.7377 32.6424 63.5878L27.2569 62.597L45.341 59.0142C46.1527 58.8533 46.7319 58.1333 46.7156 57.3062C46.6989 56.479 46.0914 55.7828 45.2741 55.6544L37.3147 54.4058L47.9431 53.552C48.3215 53.5215 48.6789 53.366 48.9587 53.1096C49.8997 52.2482 50.8434 51.3447 51.7639 50.4241C54.2649 47.9231 56.7514 45.1506 59.1549 42.1839C59.4958 41.7631 59.6167 41.2053 59.4804 40.681C59.3444 40.1569 58.9674 39.7283 58.4648 39.5263L55.9837 38.53L62.5866 37.0122C62.9939 36.9185 63.3525 36.6788 63.5948 36.3382C66.0762 32.8499 68.2728 29.3597 70.1237 25.9642C70.1336 25.9461 70.143 25.9278 70.1523 25.9094L72.61 20.9841C72.6202 20.9636 72.6297 20.943 72.6394 20.9224C76.6736 11.9545 77.0748 5.48355 73.8 2.20873ZM18.4736 40.7643L20.4208 53.1751L15.1884 58.4075L15.087 57.8567L18.4736 40.7643ZM10.8174 53.5104L11.6712 58.1514C11.6713 58.1523 11.6713 58.1529 11.6715 58.1537L12.2575 61.3381L8.94111 64.6545L10.8174 53.5104ZM11.3545 67.0675L14.6708 63.7514L17.8554 64.3374H17.8558L22.4982 65.1915L11.3545 67.0675ZM18.1522 60.9219L17.6014 60.8205L22.8338 55.5881L35.2448 57.5353L18.1522 60.9219ZM69.5413 19.491L67.1131 24.3575C65.4231 27.4551 63.4312 30.6397 61.1877 33.8319L49.9172 36.4228C49.1904 36.5898 48.6564 37.2093 48.5983 37.9529C48.5403 38.6961 48.9717 39.3914 49.6637 39.6692L55.0252 41.8225C53.1625 44.0266 51.2603 46.1018 49.3511 48.011C48.6058 48.7563 47.8447 49.4898 47.0831 50.1973L26.5777 51.8446L60.5493 17.8732C61.2156 17.2068 61.2156 16.1264 60.5493 15.4599C59.8828 14.7935 58.8027 14.7935 58.136 15.4599L24.1644 49.4312L25.8117 28.9259C26.5193 28.164 27.2529 27.403 27.9981 26.6578C32.4647 22.1912 37.9276 17.7025 43.5246 13.8894L46.7936 19.3691C47.1687 19.9977 47.9026 20.3173 48.6182 20.163C49.3337 20.0089 49.8713 19.4156 49.9543 18.6884L51.0334 9.23575C60.807 3.80027 68.7502 1.98518 71.3866 4.62173C73.4755 6.71068 72.7856 12.2674 69.5413 19.491Z" fill="white"/>
</svg>
