<svg width="87" height="71" viewBox="0 0 87 71" fill="none" xmlns="http://www.w3.org/2000/svg">
<g clip-path="url(#clip0_93_468)">
<path d="M76.852 0V62.9355H69.258V43.9355H59.203C54.984 57.7292 44.566 64.6249 27.949 64.6249C22.136 64.6249 16.933 63.4431 12.34 61.0809C6.363 58.0035 3.375 53.4971 3.375 47.5627C3.375 45.8863 3.68 44.3751 4.289 43.0293C4.898 41.6835 5.748 40.5358 6.838 39.5873C7.928 38.6389 9.223 37.9179 10.723 37.4232C12.223 36.9285 13.875 36.6811 15.68 36.6811H53.403C53.544 34.5381 53.614 32.8206 53.614 31.5287C53.614 29.0012 53.456 26.5967 53.139 24.3165C52.822 22.0363 52.33 19.9754 51.662 18.1348C50.994 16.2943 50.139 14.7069 49.096 13.374C48.053 12.041 46.817 11.0457 45.387 10.3857C45.809 10.8804 46.172 11.5604 46.477 12.4256C46.782 13.2907 47.028 14.163 47.215 15.0422C47.402 15.9215 47.543 16.7257 47.637 17.4537C47.731 18.1817 47.778 18.6553 47.778 18.8757C47.778 21.3212 47.456 23.4783 46.811 25.347C46.166 27.2157 45.311 28.7749 44.245 30.0246C43.179 31.2743 41.942 32.2157 40.536 32.8476C39.13 33.4795 37.665 33.796 36.141 33.796C34.36 33.796 32.702 33.5416 31.166 33.034C29.63 32.5264 28.301 31.6882 27.176 30.5193C26.051 29.3505 25.172 27.8195 24.539 25.9238C23.906 24.0281 23.59 21.6788 23.59 18.8757C23.59 17.6671 23.713 16.4091 23.959 15.1043C24.205 13.7995 24.592 12.5217 25.119 11.2708C25.646 10.0199 26.32 8.83939 27.14 7.72685C27.96 6.6143 28.933 5.64596 30.058 4.82063C31.183 3.99531 32.466 3.33646 33.908 2.84174C35.35 2.34701 36.972 2.09965 38.777 2.09965C41.777 2.09965 44.619 2.62837 47.302 3.68699C49.985 4.7456 52.341 6.47597 54.368 8.88042C56.395 11.2849 58.007 14.4244 59.202 18.2978C60.397 22.1712 61.007 26.925 61.03 32.558C61.03 33.1899 61.012 33.8499 60.977 34.5369C60.942 35.2239 60.901 35.9379 60.854 36.68H69.256V0H76.852ZM51.504 43.9355H14.414C13.898 43.9355 13.43 44.0528 13.008 44.2861C12.586 44.5193 12.223 44.8429 11.918 45.2544C11.613 45.6659 11.379 46.1477 11.215 46.6964C11.051 47.245 10.969 47.823 10.969 48.4279C10.969 51.6706 13.559 54.102 18.739 55.7233C22.255 56.823 25.981 57.3716 29.919 57.3716C35.192 57.3716 39.423 56.4783 42.61 54.6929C46.289 52.6038 49.254 49.0188 51.504 43.9355ZM41.063 18.8769C41.063 18.3001 40.958 17.5991 40.747 16.7749C40.536 15.9508 40.22 15.1536 39.798 14.3845C39.376 13.6155 38.849 12.9555 38.216 12.4056C37.583 11.8558 36.857 11.5815 36.036 11.5815C35.052 11.5815 34.22 11.7948 33.54 12.2204C32.86 12.646 32.31 13.1958 31.888 13.8687C31.466 14.5416 31.161 15.3177 30.974 16.197C30.787 17.0762 30.693 17.9695 30.693 18.8757C30.693 20.3318 30.857 21.5615 31.185 22.5639C31.513 23.5662 31.941 24.3705 32.468 24.9754C32.995 25.5803 33.599 26.0129 34.279 26.2732C34.959 26.5334 35.662 26.6647 36.388 26.6647C37.021 26.6647 37.618 26.5616 38.181 26.3552C38.744 26.1489 39.236 25.7573 39.658 25.1805C40.08 24.6038 40.42 23.8136 40.678 22.8113C40.936 21.8089 41.063 20.4971 41.063 18.8769Z" fill="white"/>
</g>
<defs>
<clipPath id="clip0_93_468">
<rect width="87" height="71" fill="white"/>
</clipPath>
</defs>
</svg>
