<svg width="100" height="36" viewBox="0 0 100 36" fill="none" xmlns="http://www.w3.org/2000/svg">
<path d="M10.8569 9.24198V8.74198H10.3569H0.785645V0.540695H30.9814V8.74198H21.4142H20.9142V9.24198V35.4634H10.8569V9.24198ZM44.2704 27.2497H62.9849V35.4676H33.7006V0.540695H62.9849V8.74198H44.2704H43.7704V9.24198V13.7287V14.2287H44.2704H62.9849V21.7754H44.2704H43.7704V22.2754V26.7497V27.2497H44.2704ZM76.3756 27.2694L76.4263 27.2663H80.7441C84.3546 27.2663 86.4965 25.7841 87.7061 23.8049C88.8908 21.8663 89.1445 19.5124 89.1445 17.7928C89.1445 16.6255 88.9557 14.3755 87.6922 12.4031C86.4044 10.3928 84.0479 8.74612 79.8824 8.74612H76.3444H75.8444V9.24612V26.7704V27.3027L76.3756 27.2694ZM65.8492 0.540695H83.5115C89.3614 0.540695 93.2579 2.69239 95.7069 5.89824C98.1721 9.12535 99.2142 13.4792 99.2142 17.9378C99.2142 23.364 97.7778 27.7284 94.8696 30.7355C91.9645 33.7396 87.5189 35.4634 81.3448 35.4634H65.8492V0.540695Z" fill="white" stroke="black"/>
</svg>
